<?xml version="1.0" encoding="UTF-8" standalone="no"?>
<svg
   xmlns:dc="http://purl.org/dc/elements/1.1/"
   xmlns:cc="http://creativecommons.org/ns#"
   xmlns:rdf="http://www.w3.org/1999/02/22-rdf-syntax-ns#"
   xmlns:svg="http://www.w3.org/2000/svg"
   xmlns="http://www.w3.org/2000/svg"
   viewBox="0 0 205.17696 115.54867"
   height="115.54867"
   width="205.17696"
   id="svg10"
   version="1.1">
  <metadata
     id="metadata16">
    <rdf:RDF>
      <cc:Work
         rdf:about="">
        <dc:format>image/svg+xml</dc:format>
        <dc:type
           rdf:resource="http://purl.org/dc/dcmitype/StillImage" />
        <dc:title></dc:title>
      </cc:Work>
    </rdf:RDF>
  </metadata>
  <defs
     id="defs14" />
  <g
     transform="matrix(0.7154259,0,0,0.76099443,220.85667,-9.3227937)"
     id="g856">
    <path
       style="fill:#edb92f;fill-opacity:1;stroke:none;stroke-width:1px;stroke-linecap:butt;stroke-linejoin:miter;stroke-opacity:1"
       d="m -251.77358,150.59496 c -4.84316,-8.50291 -14.52928,-25.50841 -22.14589,-38.7939 -7.61662,-13.285493 -13.20198,-22.916942 -18.19837,-31.726377 -4.9964,-8.809436 -9.42323,-16.830333 -11.92146,-21.607724 -2.49822,-4.777391 -3.06802,-6.311456 -3.19886,-7.127664 -0.13084,-0.816207 0.17607,-0.914857 0.79849,-0.805613 0.62241,0.109244 1.56841,0.428241 2.7622,0.932054 1.19379,0.503813 2.64104,1.194551 3.92813,2.103728 1.28709,0.909177 2.41601,2.038096 3.75276,3.435112 1.33675,1.397016 2.88171,3.062503 4.36094,4.678696 1.47923,1.616192 2.89267,3.183028 4.14727,4.596511 1.25461,1.413483 2.35028,2.673515 3.27634,3.550217 0.92605,0.876703 1.68206,1.369745 2.21938,1.528246 0.53732,0.158501 0.85518,-0.01687 1.42869,-0.672402 0.57351,-0.655532 1.40937,-1.799341 2.41155,-2.669881 1.00219,-0.87054 2.17577,-1.473781 3.31468,-1.807665 1.13891,-0.333884 2.24671,-0.399694 3.22066,-0.400548 0.97395,-8.55e-4 1.86381,0.06673 2.92039,0.274788 1.05658,0.208059 2.30702,0.559059 3.31711,0.937932 1.01009,0.378873 1.81656,0.80451 2.98337,1.729958 1.16682,0.925449 2.68977,2.33962 3.77446,3.435257 1.08469,1.095637 1.72022,1.862657 2.43255,2.607865 0.71234,0.745207 1.50115,1.468282 2.26847,1.917585 0.76731,0.449304 1.51244,0.62463 2.25735,0.679314 0.7449,0.05468 1.49071,-0.01112 2.10395,-0.252292 0.61325,-0.241169 1.09606,-0.658142 1.55553,-1.32565 0.45947,-0.667508 0.89873,-1.589947 1.30388,-2.465976 0.40515,-0.876029 0.77819,-1.709861 1.0544,-2.101459 0.27621,-0.391598 0.45648,-0.343295 0.55472,0.25657 0.0982,0.599865 0.11554,1.761308 0.12417,2.877186 0.009,1.115878 0.009,2.188765 -0.10098,3.559128 -0.1096,1.370363 -0.32854,3.0343 -0.55863,4.29462 -0.23008,1.260319 -0.47098,2.114408 -0.85461,2.914821 -0.38363,0.800414 -0.90884,1.544469 -1.54474,2.13671 -0.63589,0.592242 -1.37984,1.029859 -2.26826,1.271277 -0.88841,0.241418 -1.91675,0.285177 -3.24356,0.08784 -1.32682,-0.197335 -2.94684,-0.635179 -4.41546,-1.117393 -1.46861,-0.482214 -2.78292,-1.007937 -4.18534,-1.382165 -1.40241,-0.374228 -2.84864,-0.590083 -4.02112,-0.557388 -1.17248,0.03269 -2.04856,0.31742 -2.69555,0.788638 -0.64698,0.471218 -1.06279,1.127746 -1.2823,1.917551 -0.21951,0.789805 -0.24138,1.708573 -0.14271,2.794137 0.0987,1.085565 0.31756,2.333292 0.63542,3.506186 0.31785,1.172895 0.73396,2.267907 1.12851,3.188563 0.39456,0.920655 0.76691,1.665374 1.2055,2.235506 0.43859,0.57014 0.94234,0.96438 1.29291,1.24922 0.35057,0.28483 0.54785,0.46019 1.16182,0.47106 0.61397,0.0109 1.64426,-0.14258 2.71749,-0.38355 1.07323,-0.24096 2.19208,-0.57004 3.50598,-0.65756 1.3139,-0.0875 2.8276,0.0661 4.23347,0.41824 1.40587,0.35219 2.69171,0.89704 3.48107,1.33445 0.78936,0.4374 1.11663,0.81143 1.19357,1.1944 0.0769,0.38298 -0.0764,0.79927 -1.0319,1.61205 -0.95545,0.81278 -2.70352,2.01458 -3.76674,2.96788 -1.06322,0.9533 -1.43552,1.6541 -1.56729,2.38906 -0.13177,0.73496 -0.0224,1.50065 0.3724,2.50964 0.39479,1.00898 1.07339,2.25673 2.04263,3.59928 0.96924,1.34255 2.20847,2.75571 3.17277,3.78575 0.96429,1.03004 1.6436,1.66552 2.89279,2.55309 1.24919,0.88757 3.06816,2.02716 4.67893,2.82702 1.61077,0.79985 3.01349,1.26013 4.49263,1.36956 1.47914,0.10944 3.03573,-0.13172 4.58017,-0.63569 1.54444,-0.50396 3.07955,-1.27152 4.45957,-2.25739 1.38003,-0.98586 2.60819,-2.19209 3.56101,-3.41888 0.95281,-1.22679 1.63271,-2.47693 2.20212,-3.85681 0.56941,-1.37988 1.03005,-2.89341 1.28147,-4.21872 0.25143,-1.3253 0.29611,-2.50954 0.0114,-3.77967 -0.28474,-1.27012 -0.89889,-2.65196 -1.51236,-3.81315 -0.61347,-1.16119 -1.22728,-2.10382 -2.00491,-2.8815 -0.77764,-0.77767 -1.7202,-1.39143 -2.33346,-1.69831 -0.61326,-0.30688 -0.89807,-0.30688 -1.40331,-0.26296 -0.50525,0.0439 -1.22588,0.13126 -2.08127,0.50399 -0.85538,0.37272 -1.84003,1.02915 -2.58549,1.62102 -0.74547,0.59186 -1.24891,1.11719 -1.63661,1.17788 -0.3877,0.0607 -0.6434,-0.32287 -0.85153,-1.06794 -0.20812,-0.74507 -0.36161,-1.84143 -0.35053,-2.794551 0.0111,-0.953118 0.18652,-1.764572 0.5371,-2.476302 0.35059,-0.711731 0.87729,-1.326212 1.58885,-1.752954 0.71156,-0.426741 1.61161,-0.668218 2.66251,-0.679089 1.0509,-0.01087 2.25777,0.208559 3.34214,0.460505 1.08438,0.251945 2.04924,0.537017 2.53103,0.470819 0.48179,-0.0662 0.48179,-0.48285 0.23029,-1.598131 -0.25151,-1.115281 -0.75675,-2.938537 -1.14018,-4.461395 -0.38344,-1.522858 -0.64651,-2.750512 -0.72313,-4.119851 -0.0766,-1.36934 0.033,-2.882353 0.35074,-4.492515 0.31772,-1.610163 0.84403,-3.320687 1.43564,-4.755663 0.59161,-1.434976 1.2495,-2.597246 1.76456,-3.276212 0.51506,-0.678965 0.88798,-0.876394 1.27045,-0.876296 0.38247,9.8e-5 0.77819,0.197959 1.23785,0.679479 0.45966,0.481519 0.98614,1.2493 1.65464,2.235606 0.6685,0.986307 1.4791,2.191256 2.07079,3.297857 0.5917,1.106601 0.96417,2.114473 1.24915,3.265193 0.28498,1.15072 0.4821,2.442952 0.58078,3.922615 0.0987,1.479664 0.0987,3.144085 0.0658,4.810053 -0.0329,1.665969 -0.0986,3.330456 -0.0213,4.152701 0.0773,0.822244 0.29629,0.800345 0.71099,0.352764 0.41471,-0.447581 1.03136,-1.328509 1.73225,-2.084011 0.70089,-0.755501 1.49083,-1.391844 2.25736,-1.796833 0.76652,-0.40499 1.51264,-0.580548 2.43205,-0.62427 0.91941,-0.04372 2.01684,0.04407 2.96949,0.317865 0.95264,0.273792 1.76415,0.734378 2.30075,1.172355 0.5366,0.437977 0.79967,0.854519 1.08464,1.479194 0.28496,0.624676 0.59157,1.456891 0.72316,2.355457 0.1316,0.898566 0.0878,1.862147 -0.0652,2.377545 -0.15298,0.515398 -0.41567,0.58107 -0.95485,0.35002 -0.53918,-0.231051 -1.34638,-0.75464 -2.21186,-1.094348 -0.86547,-0.339708 -1.78559,-0.493061 -2.66233,-0.383662 -0.87674,0.109399 -1.70875,0.481614 -2.35571,0.941942 -0.64695,0.460328 -1.10648,1.00739 -1.52344,1.764319 -0.41696,0.756924 -0.78877,1.719264 -0.97528,2.684194 -0.1865,0.96494 -0.1865,1.97179 -0.0571,3.11253 0.12944,1.14073 0.39636,2.47535 0.72516,3.7249 0.32881,1.24954 0.72304,2.43222 1.22723,3.59409 0.50419,1.16187 1.11748,2.30083 1.81889,3.39681 0.70142,1.09598 1.49009,2.14754 2.30668,3.01988 0.81659,0.87234 1.68187,1.58231 2.85437,2.26167 1.1725,0.67936 2.66286,1.33687 4.2759,1.87429 1.61305,0.53742 3.33985,0.95272 5.09275,1.18274 1.7529,0.23002 3.52871,0.27386 5.28147,0.0656 1.75277,-0.20823 3.48495,-0.66868 4.88711,-1.19459 1.40215,-0.52591 2.47669,-1.11801 3.50605,-1.84084 1.02936,-0.72284 2.0166,-1.57845 2.98017,-2.72828 0.96356,-1.14984 1.90689,-2.59774 2.56393,-4.15299 0.65703,-1.55525 1.02988,-3.22207 1.09549,-4.55827 0.0656,-1.3362 -0.17562,-2.34497 -0.54769,-2.96898 -0.37207,-0.62401 -0.87645,-0.86524 -1.54521,-1.2051 -0.66877,-0.33986 -1.50081,-0.77778 -2.42166,-1.61094 -0.92085,-0.83317 -1.92847,-2.05983 -2.64058,-2.84863 -0.71211,-0.78881 -1.12851,-1.13947 -1.90608,-1.22723 -0.77756,-0.0878 -1.91685,0.0875 -2.67522,0.0917 -0.75837,0.004 -1.17076,-0.17911 -1.29123,-0.497835 -0.12047,-0.31873 0.0327,-0.778389 0.40487,-1.248761 0.37211,-0.470373 0.96534,-0.953745 1.54558,-1.249154 0.58023,-0.295409 1.15105,-0.405182 1.78575,-0.437958 0.6347,-0.03278 1.33737,0.01114 2.09262,0.230092 0.75525,0.218952 1.56716,0.613935 2.39962,1.063039 0.83247,0.449103 1.68757,0.953388 2.45464,1.293028 0.76708,0.339641 1.44667,0.515019 1.97264,0.569649 0.52598,0.0546 0.8989,-0.0112 1.21612,-0.20836 0.31722,-0.197171 0.581,-0.526892 0.79953,-1.128099 0.21853,-0.601207 0.39443,-1.480707 0.31774,-2.575333 -0.0767,-1.094626 -0.40583,-2.411216 -0.95349,-4.360865 -0.54766,-1.949649 -1.31508,-4.536924 -2.25726,-6.990925 -0.94218,-2.454001 -2.06009,-4.7775 -3.23233,-6.69471 -1.17225,-1.917209 -2.39968,-3.429572 -3.42949,-4.492272 -1.02981,-1.062701 -1.86262,-1.676349 -2.72807,-2.103673 -0.86545,-0.427324 -1.76375,-0.668332 -2.76102,-0.646554 -0.99727,0.02178 -2.09215,0.306445 -2.95828,0.87627 -0.86613,0.569825 -1.50096,1.423564 -1.95059,2.234857 -0.44963,0.811293 -0.71225,1.577283 -0.96459,2.827798 -0.25233,1.250515 -0.49301,2.979033 -0.84346,4.173564 -0.35046,1.194531 -0.81036,1.851535 -1.42443,2.400005 -0.61408,0.548469 -1.37975,0.985995 -2.37791,1.183546 -0.99816,0.19755 -2.22346,0.153789 -3.24303,-0.04349 -1.01958,-0.19728 -1.82977,-0.547633 -2.63006,-1.040949 -0.80028,-0.493315 -1.58873,-1.128454 -2.58605,-2.27922 -0.99732,-1.150766 -2.20242,-2.816001 -3.14474,-4.350045 -0.94231,-1.534044 -1.62173,-2.936714 -2.00515,-4.142093 -0.38343,-1.20538 -0.47111,-2.213741 -0.24063,-2.783141 0.23047,-0.569399 0.77882,-0.701004 1.45692,-0.569699 0.6781,0.131304 1.49067,0.526607 2.1809,0.8224 0.69024,0.295792 1.2603,0.49312 1.77535,0.448977 0.51504,-0.04414 0.97572,-0.329325 1.48976,-0.93102 0.51404,-0.601696 1.08525,-1.524438 1.70924,-2.91483 0.62398,-1.390391 1.30419,-3.255477 2.14771,-4.975219 0.84353,-1.719743 1.85224,-3.298592 2.68489,-4.39398 0.83265,-1.095389 1.49056,-1.709445 2.3773,-2.201941 0.88673,-0.492497 2.00611,-0.865625 3.30909,-1.01884 1.30298,-0.153215 2.79475,-0.0874 4.09811,0.142654 1.30335,0.230055 2.4217,0.624763 3.44654,1.093003 1.02484,0.468239 1.97715,1.021911 2.91915,1.788646 0.94199,0.766735 1.88462,1.753208 2.69537,2.82688 0.81076,1.073671 1.49009,2.235103 2.19144,3.473418 0.70135,1.238315 1.42433,2.552824 2.09638,4.041772 0.67205,1.488947 1.2783,3.112851 1.74953,4.559335 0.47123,1.446484 0.79983,2.69518 1.16154,4.317348 0.36171,1.622167 0.75595,3.615268 1.09569,5.52214 0.33974,1.906872 0.62451,3.725055 0.90943,5.073089 0.28492,1.348034 0.56967,2.22421 0.84435,2.5637 0.27468,0.339489 0.53747,0.142397 0.7339,-0.883722 0.19642,-1.026119 0.32847,-2.896767 0.3394,-5.722582 0.0109,-2.825814 -0.0987,-6.619157 -0.18634,-9.862132 -0.0876,-3.242975 -0.1534,-5.939125 -0.33968,-8.152068 -0.18627,-2.212943 -0.49319,-3.944801 -1.08469,-5.554912 -0.5915,-1.610111 -1.46848,-3.100973 -2.68452,-4.809998 -1.21604,-1.709024 -2.77228,-3.637876 -3.98854,-5.358203 -1.21626,-1.720327 -2.09289,-3.232507 -2.70646,-4.503567 -0.61357,-1.27106 -0.96428,-2.301249 -0.99695,-3.298373 -0.0327,-0.997124 0.25237,-1.961907 1.12817,-3.844807 0.8758,-1.882901 2.34588,-4.691396 4.3834,-8.207729 2.03752,-3.516332 4.64644,-7.747594 6.38853,-10.508609 1.7421,-2.761015 2.61891,-4.054316 3.13394,-4.700214 0.51503,-0.645897 0.71239,-0.645897 0.95197,-0.330162 0.23959,0.315736 0.54814,0.954876 1.17302,2.018291 0.62489,1.063415 1.56658,2.552604 2.9583,4.788119 1.39172,2.235514 3.2322,5.215336 4.55804,7.428719 1.32585,2.213384 2.1366,3.659592 2.94303,5.152262 0.80643,1.492671 1.62605,3.065463 2.16299,4.314547 0.53694,1.249083 0.79984,2.191171 0.94237,3.04595 0.14252,0.854779 0.1644,1.621236 -0.20828,2.684832 -0.37269,1.063595 -1.13872,2.420563 -2.22403,4.108868 -1.0853,1.688304 -2.48659,3.70266 -3.73598,5.412392 -1.24939,1.709731 -2.34449,3.111454 -3.10086,4.273224 -0.75637,1.16177 -1.17241,2.081443 -1.44663,3.079298 -0.27422,0.997854 -0.40553,2.070251 -0.53713,3.978236 -0.13159,1.907985 -0.26294,4.644453 -0.36159,8.294071 -0.0986,3.649618 -0.16436,8.206054 -0.14248,11.23044 0.0219,3.024387 0.13143,4.514229 0.29595,5.347536 0.16452,0.833308 0.38353,1.008515 0.69037,0.526067 0.30684,-0.482449 0.70152,-1.622627 1.11752,-3.845139 0.41601,-2.222513 0.85475,-5.535064 1.42453,-8.252125 0.56978,-2.717061 1.27128,-4.843461 2.01619,-6.880946 0.74491,-2.037485 1.53427,-3.988959 2.54208,-5.905855 1.00781,-1.916896 2.23577,-3.802692 3.50656,-5.292398 1.27079,-1.489707 2.58645,-2.586094 4.05411,-3.396452 1.46765,-0.810358 3.09064,-1.336732 4.78824,-1.59951 1.69761,-0.262777 3.47398,-0.262777 4.65687,-0.109366 1.1829,0.153412 1.77492,0.460385 2.41007,0.898428 0.63516,0.438044 1.31494,1.008182 1.95031,1.676405 0.63537,0.668223 1.22714,1.435332 1.75308,2.27899 0.52594,0.843658 0.98606,1.763888 1.42443,2.815943 0.43838,1.052055 0.85457,2.234913 1.27104,3.221354 0.41648,0.98644 0.83265,1.774971 1.23817,2.509286 0.40551,0.734316 0.79978,1.41334 1.21647,1.895758 0.41669,0.482419 0.85477,0.767171 1.41385,0.832747 0.55909,0.06557 1.23882,-0.08791 2.02698,-0.339729 0.78816,-0.251816 1.68819,-0.603048 2.30118,-0.701428 0.613,-0.09838 0.94216,0.05523 1.12813,0.328353 0.18597,0.273126 0.22986,0.66811 0.20797,1.216628 -0.0219,0.548518 -0.10935,1.248222 -0.37942,2.116364 -0.27007,0.868143 -0.7376,1.93679 -1.48315,3.208707 -0.74555,1.271917 -1.77434,2.760379 -2.72785,3.96608 -0.95352,1.205701 -1.82942,2.125395 -2.79412,2.838114 -0.96471,0.712719 -2.01542,1.216184 -3.21061,1.468488 -1.1952,0.252303 -2.53044,0.252303 -3.6049,0.01116 -1.07445,-0.241147 -1.88468,-0.722904 -2.50957,-1.501402 -0.62489,-0.778498 -1.06301,-1.851905 -1.43545,-3.276063 -0.37244,-1.424158 -0.67939,-3.200057 -1.0562,-4.427727 -0.37681,-1.22767 -0.85041,-1.949341 -1.44185,-2.606507 -0.59143,-0.657166 -1.31485,-1.270978 -2.19105,-1.599713 -0.8762,-0.328734 -1.90605,-0.372557 -2.8422,-0.17308 -0.93614,0.199477 -1.75907,0.632598 -2.61441,1.213712 -0.85534,0.581114 -1.73066,1.30325 -2.62985,2.30102 -0.89919,0.99777 -1.81845,2.267225 -2.60778,3.59362 -0.78933,1.326395 -1.44618,2.705766 -2.16975,4.426935 -0.72357,1.72117 -1.5118,3.77932 -2.13653,5.55482 -0.62474,1.7755 -1.08468,3.264802 -1.41357,4.689813 -0.3289,1.425011 -0.52597,2.782608 -0.56965,3.825607 -0.0437,1.042999 0.0653,1.762326 0.24778,2.294497 0.18248,0.532172 0.45305,0.89293 0.79329,1.101277 0.34024,0.20834 0.75641,0.27406 1.24911,0.19727 0.49271,-0.0768 1.06361,-0.296352 1.76398,-0.591839 0.70038,-0.295486 1.53489,-0.668819 2.44834,-1.142375 0.91346,-0.473555 1.89155,-1.038675 2.8332,-1.290353 0.94164,-0.251678 1.8412,-0.185856 2.57483,-0.03251 0.73362,0.153347 1.30398,0.394653 1.77035,0.739569 0.46637,0.344916 0.8479,0.816216 1.05609,1.2213 0.20818,0.405085 0.252,0.755636 0.16472,0.975078 -0.0873,0.21943 -0.30586,0.30687 -0.8122,0.32893 -0.50634,0.0221 -1.29091,-0.0215 -1.9706,-0.0654 -0.67969,-0.0438 -1.2488,-0.0876 -1.76403,0.0437 -0.51523,0.13131 -0.9747,0.43762 -1.39179,0.93134 -0.41709,0.49371 -0.7887,1.17135 -1.34797,1.85141 -0.55927,0.68005 -1.30305,1.3582 -2.11441,1.9175 -0.81137,0.5593 -1.68671,0.99697 -2.24591,1.40236 -0.55921,0.40539 -0.79994,0.77743 -0.9866,1.17252 -0.18666,0.39508 -0.31774,0.81016 -0.3727,1.31515 -0.055,0.505 -0.0331,1.09499 0.16432,2.19212 0.19746,1.09713 0.5694,2.69427 1.16127,4.11923 0.59188,1.42495 1.40234,2.6735 2.16951,3.63794 0.76716,0.96443 1.49019,1.64364 2.42166,2.32305 0.93146,0.6794 2.07105,1.35877 3.14487,1.87373 1.07381,0.51495 2.08213,0.86567 3.38571,1.13949 1.30358,0.27382 2.90425,0.47117 4.48177,0.50397 1.57752,0.0328 3.13427,-0.0987 4.77469,-0.38292 1.64042,-0.28418 3.37806,-0.72409 4.94446,-1.32665 1.5664,-0.60256 2.96987,-1.37008 4.14179,-2.22451 1.17192,-0.85443 2.11504,-1.79755 2.92538,-2.79418 0.81035,-0.99662 1.49041,-2.04962 2.13641,-3.35268 0.646,-1.30307 1.26028,-2.86071 1.77315,-4.52845 0.51287,-1.66775 0.93326,-3.48208 0.99889,-5.13593 0.0656,-1.65384 -0.21945,-3.16691 -0.55904,-4.26221 -0.33958,-1.095305 -0.73424,-1.775 -1.27072,-2.300607 -0.53648,-0.525606 -1.21614,-0.898323 -1.96118,-1.139445 -0.74504,-0.241122 -1.55546,-0.350638 -2.27879,-0.263159 -0.72332,0.08748 -1.35817,0.372068 -2.02723,0.712049 -0.66906,0.339982 -1.36899,0.733691 -1.86268,0.865503 -0.49368,0.131812 -0.77809,5.45e-4 -0.94273,-0.394991 -0.16464,-0.395536 -0.2084,-1.051944 -0.10978,-1.851274 0.0986,-0.79933 0.34003,-1.742978 0.69569,-2.56087 0.35566,-0.817891 0.80627,-1.48308 1.46319,-1.997443 0.65693,-0.514363 1.51303,-0.865583 2.36702,-1.084473 0.854,-0.218889 1.70986,-0.30667 2.65074,-0.227507 0.94089,0.07916 1.92953,0.315578 2.77267,0.731685 0.84313,0.416107 1.52296,1.008211 2.18024,1.775018 0.65728,0.766807 1.29287,1.709228 1.68799,2.125291 0.39511,0.416064 0.54847,0.30652 0.65728,-0.150814 0.1088,-0.457333 0.17503,-1.274159 0.0984,-2.806576 -0.0766,-1.532417 -0.29607,-3.79258 -0.26308,-5.534663 0.033,-1.742083 0.31799,-2.969768 0.61371,-4.163552 0.29572,-1.193783 0.60281,-2.356348 1.23806,-3.681395 0.63524,-1.325047 1.60045,-2.816736 2.45492,-3.966862 0.85447,-1.150126 1.60014,-1.961584 2.14776,-2.355507 0.54762,-0.393923 0.8987,-0.371982 1.29202,0.01034 0.39332,0.382327 0.83277,1.129397 1.36979,2.192455 0.53701,1.063058 1.17227,2.443089 1.62158,3.747037 0.4493,1.303948 0.71219,2.530752 0.86567,3.889787 0.15348,1.359035 0.19728,2.848294 0.0768,4.174385 -0.12046,1.32609 -0.40517,2.486793 -0.73403,3.681734 -0.32887,1.194941 -0.70103,2.4209 -0.92042,3.419364 -0.21939,0.998464 -0.28491,1.762856 -0.1746,2.113842 0.11031,0.350987 0.3948,0.285336 1.15924,0.08876 0.76444,-0.196575 2.01868,-0.526637 3.09128,-0.722885 1.072597,-0.196247 2.017207,-0.263719 2.892964,-0.08851 0.875757,0.175212 1.709465,0.592066 2.344582,1.183306 0.635118,0.591241 1.073614,1.35861 1.29285,2.191205 0.219235,0.832594 0.219235,1.730704 0.0768,2.695414 -0.142437,0.9647 -0.427007,1.99353 -0.667841,2.50911 -0.240835,0.51558 -0.437836,0.51558 -0.790278,0.2182 -0.352442,-0.29739 -0.853916,-0.88608 -1.478273,-1.43378 -0.624356,-0.5477 -1.369551,-1.0518 -2.267888,-1.38055 -0.898337,-0.32875 -1.949903,-0.48211 -2.826573,-0.4275 -0.87667,0.0546 -1.57737,0.31736 -2.17522,0.7493 -0.59785,0.43194 -1.11178,1.05759 -1.75902,1.96807 -0.64724,0.91048 -1.43476,2.11363 -1.92819,3.20982 -0.49342,1.09619 -0.69046,2.08139 -0.80016,3.07914 -0.1097,0.99776 -0.1316,2.00464 -0.0111,2.98048 0.12055,0.97584 0.38326,1.9172 0.69018,2.89279 0.30692,0.97559 0.6573,1.98293 1.11769,2.8928 0.4604,0.90987 1.02984,1.72023 1.6379,2.53798 0.60806,0.81775 1.23278,1.6148 2.05296,2.33026 0.82019,0.71546 1.87566,1.36671 2.69745,1.82689 0.821781,0.46017 1.435545,0.74514 2.191295,1.07372 0.75575,0.32858 1.654886,0.70139 2.465732,0.90949 0.810846,0.2081 1.534423,0.25195 2.246214,0.27384 0.711792,0.0219 1.413958,0.0219 2.267994,-0.13148 0.854035,-0.15337 1.863532,-0.4606 2.991374,-0.96437 1.127843,-0.50376 2.378439,-1.20585 3.878677,-2.31193 1.500238,-1.10608 3.255047,-2.6196 4.646172,-4.07658 1.391125,-1.45698 2.421725,-2.86035 3.199277,-4.28424 0.777552,-1.42388 1.30392,-2.87139 1.52282,-3.90093 0.2189,-1.02953 0.13117,-1.64364 -0.235386,-2.26205 -0.366556,-0.61841 -1.035821,-1.26537 -1.901347,-1.94465 -0.865525,-0.67929 -1.939296,-1.40244 -2.706498,-2.03814 -0.767202,-0.63569 -1.227305,-1.18344 -1.281614,-1.65504 -0.05431,-0.4716 0.296379,-0.86613 1.094714,-1.35816 0.798334,-0.49204 2.050791,-1.08531 3.277359,-1.44661 1.226567,-0.3613 2.433016,-0.49291 3.75805,-0.46001 1.325034,0.0329 2.772693,0.23031 3.835201,0.44942 1.062508,0.21912 1.742248,0.46032 2.410571,0.58074 0.668323,0.12043 1.326307,0.12043 1.851896,-0.1208 0.525589,-0.24124 0.920648,-0.72409 1.314567,-1.29316 0.393919,-0.569073 0.789267,-1.227988 1.106599,-2.048891 0.317332,-0.820903 0.558821,-1.808812 0.821732,-2.641168 0.262912,-0.832355 0.548137,-1.512508 0.745083,-2.300574 0.196946,-0.788066 0.306712,-1.688149 0.328566,-2.596936 0.02186,-0.908787 -0.04397,-1.83032 -0.273905,-2.563804 -0.229935,-0.733485 -0.624788,-1.281893 -1.314543,-1.70898 -0.689754,-0.427088 -1.67623,-0.733991 -2.552771,-0.788964 -0.876541,-0.05497 -1.643054,0.142131 -2.970323,0.460241 -1.327269,0.31811 -3.209002,0.755723 -4.58986,1.193981 -1.380858,0.438258 -2.256886,0.876272 -3.264317,1.17225 -1.00743,0.295978 -2.148316,0.449559 -3.299622,0.350944 -1.151306,-0.09861 -2.311629,-0.4489 -3.177689,-0.876436 -0.866059,-0.427536 -1.435517,-0.931287 -1.928746,-1.797297 -0.493228,-0.866009 -0.909553,-2.093071 -1.249127,-3.517222 -0.339574,-1.42415 -0.602673,-3.046592 -0.712177,-4.766511 -0.109504,-1.719919 -0.06565,-3.539723 0.03309,-4.701124 0.09874,-1.161402 0.252227,-1.665714 0.40521,-1.81882 0.152983,-0.153106 0.306746,0.04459 0.50401,0.43907 0.197264,0.394481 0.438152,0.985752 0.778013,1.753192 0.339861,0.767439 0.777771,1.708944 1.161468,2.33381 0.383697,0.624866 0.712258,0.931523 1.106915,1.183614 0.394656,0.252091 0.854907,0.449341 1.347998,0.537323 0.493091,0.08798 1.06338,0.06517 1.763909,-0.08814 0.700528,-0.153309 1.556806,-0.438735 2.563954,-1.150445 1.007147,-0.711711 2.170236,-1.852855 3.429674,-3.210895 1.259438,-1.358041 2.619306,-2.937243 3.955776,-4.021537 1.336471,-1.084295 2.65222,-1.676382 4.08687,-2.136283 1.43465,-0.459901 2.991993,-0.788917 4.448755,-0.888449 1.456762,-0.09953 2.860095,0.03412 3.944397,0.264174 1.084302,0.230054 1.873729,0.558982 2.541694,0.996992 0.667965,0.438011 1.216168,0.986214 1.785909,1.599778 0.56974,0.613564 1.161426,1.292907 1.63267,1.786063 0.471244,0.493156 0.821834,0.799923 1.194889,0.83243 0.373055,0.03251 0.767592,-0.2086 1.472264,-0.793563 0.704671,-0.584963 1.7496,-1.540962 3.698462,-3.665031 1.948862,-2.124069 4.822541,-5.436479 7.068551,-7.846759 2.24601,-2.410279 3.868191,-3.922853 5.336113,-5.018179 1.467921,-1.095327 2.783618,-1.775103 4.09788,-2.333609 1.314261,-0.558507 2.630316,-0.997192 3.298054,-1.085224 0.667738,-0.08803 0.689672,0.175179 0.612839,0.691364 -0.07683,0.516186 -0.25154,1.280531 -0.795712,2.59911 -0.544172,1.318578 -1.471625,3.217649 -5.001744,9.598186 -3.530118,6.380537 -9.662211,17.243103 -14.66983,25.965359 -5.007618,8.722257 -8.886027,15.295827 -12.250142,21.103567 -3.364115,5.80774 -6.212464,10.84713 -9.837776,17.21062 -3.625312,6.36348 -8.033091,14.06065 -11.188896,19.56139 -3.155806,5.50075 -5.062057,8.8093 -6.497481,10.99003 -1.435424,2.18074 -2.399307,3.23225 -3.133582,3.81343 -0.734275,0.58118 -1.237805,0.69064 -1.72067,0.69072 -0.482866,9e-5 -0.942006,-0.10923 -1.940385,-0.43836 -0.998378,-0.32912 -2.529976,-0.87613 -4.820574,-1.66524 -2.290599,-0.7891 -5.335548,-1.81869 -8.294238,-2.7611 -2.95868,-0.9424 -5.8289,-1.79689 -8.96298,-2.59686 -3.13407,-0.79997 -6.53003,-1.54489 -9.64213,-2.12568 -3.1121,-0.5808 -5.93843,-0.99708 -8.90724,-1.34768 -2.96882,-0.3506 -6.08173,-0.63558 -9.34744,-0.87668 -3.2657,-0.2411 -6.68334,-0.43828 -10.23396,-0.61362 -3.55061,-0.17534 -7.2312,-0.3287 -10.0584,-0.42733 -2.82719,-0.0986 -4.79896,-0.14245 -6.43192,-0.11051 -1.63297,0.0319 -2.96895,0.14327 -5.44678,0.26388 -2.47783,0.12061 -6.11262,0.25199 -9.29119,0.39447 -3.17857,0.14249 -5.89394,0.29578 -8.34874,0.50398 -2.4548,0.2082 -4.64538,0.47107 -7.57187,0.79989 -2.92649,0.32882 -6.58432,0.72308 -9.49922,1.17232 -2.91489,0.44925 -5.08376,0.95312 -7.51697,1.53402 -2.43322,0.5809 -5.12722,1.23797 -7.94383,2.02705 -2.81662,0.78907 -5.75186,1.70907 -8.12993,2.51999 -2.37807,0.81093 -4.19621,1.5119 -5.90606,2.12572 -1.70985,0.61381 -3.30854,1.1394 -4.41558,1.38067 -1.10704,0.24127 -1.72018,0.19748 -2.35661,-0.10975 -0.63643,-0.30723 -1.29287,-0.87614 -1.78607,-1.39129 -0.4932,-0.51514 -0.82187,-0.97529 -1.06288,-1.30394 -0.24101,-0.32864 -0.39448,-0.52595 -0.47112,-0.62449 -0.0767,-0.0985 -0.0766,-0.0985 -4.91976,-8.60147 z"
       id="path32" />
    <g
       id="g30"
       transform="translate(-53.383254,-9.2040094)">
      <path
         id="path20"
         d="m -110.51586,159.09788 c -15.75469,0.52591 -31.6052,1.05502 -45.04564,3.46379 -13.44043,2.40878 -24.66057,6.70398 -30.0743,8.70412 -5.41373,2.00013 -5.10522,1.76875 -15.85271,-17.10489 -10.74749,-18.87363 -32.7318,-56.598704 -43.38147,-75.576681 -10.64968,-18.977976 -10.03608,-19.328606 -8.1548,-18.934808 1.88127,0.393799 5.04303,1.535542 9.11831,5.216427 4.07528,3.680885 9.07264,9.905664 11.96582,13.061433 2.89319,3.155769 3.68209,3.243424 4.64555,2.14833 0.96345,-1.095095 2.10427,-3.376719 4.90658,-4.428102 2.80232,-1.051383 7.27863,-0.875841 10.69649,0.613966 3.41785,1.489808 5.78511,4.295444 7.53829,6.311607 1.75319,2.016163 2.8927,3.243319 4.42727,3.813086 1.53457,0.569767 3.46296,0.482113 4.73345,-0.832621 1.27048,-1.314734 1.88442,-3.858167 2.41062,-5.128611 0.5262,-1.270444 0.78937,-1.270444 0.96418,0.608311 0.17482,1.878756 0.17482,5.658767 -0.20052,8.58652 -0.37535,2.927753 -1.20205,5.224169 -2.56089,6.627264 -1.35883,1.403095 -3.28623,2.016357 -5.52265,1.753325 -2.23642,-0.263032 -4.7769,-1.401867 -7.14369,-2.190848 -2.36679,-0.788981 -4.55783,-1.227189 -6.26717,-1.052185 -1.70933,0.175004 -2.9361,0.963641 -3.41872,2.454795 -0.48262,1.491153 -0.2199,3.680502 0.34982,6.003572 0.56973,2.32306 1.44553,4.7753 2.411,6.17943 0.96548,1.40414 2.01645,1.75446 3.55018,1.44755 1.53372,-0.30692 3.55099,-1.2717 6.17943,-1.18399 2.62844,0.0877 5.87369,1.22793 7.23252,2.19141 1.35883,0.96349 0.83279,1.75255 -0.49388,2.74303 -1.32666,0.99049 -3.58171,2.25331 -4.59037,3.52461 -1.00866,1.2713 -0.83345,2.58544 -0.10659,4.39375 0.72685,1.80831 2.07809,4.24055 4.40143,6.65154 2.32334,2.41098 5.65383,4.86502 8.41535,6.17985 2.76152,1.31483 4.95306,1.49016 6.95194,1.14748 1.99887,-0.34267 3.87445,-1.2358 5.4956,-2.24364 1.62114,-1.00785 3.02458,-2.14814 4.33874,-3.85672 1.31415,-1.70858 2.5423,-3.98944 3.24323,-6.31168 0.70093,-2.32223 0.87634,-4.69022 0.19877,-6.99834 -0.67758,-2.30813 -2.12768,-4.44063 -3.39834,-5.75526 -1.27065,-1.31462 -2.32264,-1.75295 -3.59368,-1.70931 -1.27103,0.0436 -2.76049,0.56933 -3.81286,1.31444 -1.05236,0.7451 -1.66548,1.70856 -2.14782,2.14746 -0.48235,0.4389 -0.83254,0.35135 -1.18395,-0.70306 -0.3514,-1.0544 -0.70133,-3.06646 -0.35038,-4.68801 0.35095,-1.62155 1.40325,-2.84924 2.89255,-3.33087 1.4893,-0.48164 3.41944,-0.21844 4.86537,0.13214 1.44594,0.35058 2.41059,0.78905 2.92613,0.87351 0.51553,0.0844 0.62385,-0.34881 0.18693,-1.96533 -0.43692,-1.61652 -1.40438,-4.51891 -1.79871,-7.104796 -0.39434,-2.585886 -0.21898,-4.865445 0.55327,-7.502104 0.77226,-2.636658 2.20856,-5.778577 3.21615,-6.873962 1.00759,-1.095385 1.62144,-0.218467 2.65514,1.075016 1.0337,1.293482 2.5603,3.089487 3.56833,5.280644 1.00804,2.191157 1.53395,4.82075 1.6217,7.713737 0.0877,2.892987 -0.26279,6.047715 -0.30613,7.626095 -0.0434,1.57838 0.21953,1.57838 0.87483,0.74822 0.65529,-0.83016 1.71118,-2.50198 3.15709,-3.50944 1.44591,-1.007461 3.288,-1.358333 5.04026,-1.139224 1.75227,0.219109 3.41879,1.008514 4.42652,2.454074 1.00773,1.44557 1.35845,3.54988 1.27136,4.68967 -0.0871,1.13978 -0.61283,1.31503 -1.27173,1.05148 -0.6589,-0.26354 -1.44601,-0.9632 -2.5409,-1.36388 -1.0949,-0.40069 -2.14757,-0.47588 -3.39645,-0.0209 -1.24888,0.45492 -2.43253,1.38493 -3.17821,2.78815 -0.74568,1.40322 -1.00842,3.24237 -0.78923,5.5225 0.21919,2.28013 0.92002,4.99585 2.05977,7.53844 1.13976,2.54259 2.71719,4.90873 4.5145,6.66214 1.79732,1.75341 3.81324,2.89285 6.35529,3.72552 2.54205,0.83268 5.61056,1.35871 8.67833,1.31477 3.06777,-0.0439 6.13658,-0.65769 8.89726,-2.1478 2.76067,-1.4901 5.21599,-3.85773 6.61799,-6.61834 1.402,-2.76061 1.75277,-5.91758 1.53408,-7.5824 -0.2187,-1.66483 -1.00789,-1.8402 -1.88516,-2.23495 -0.87726,-0.39474 -1.84059,-1.00777 -2.71744,-1.79695 -0.87685,-0.78918 -1.66556,-1.75315 -2.23536,-2.54214 -0.56979,-0.78898 -0.92046,-1.40265 -1.39401,-1.63471 -0.47354,-0.23206 -1.27823,-0.0309 -2.15574,0.10077 -0.8775,0.13166 -1.92763,0.21917 -2.41014,-7.6e-4 -0.48252,-0.21993 -0.39495,-0.74534 -8.7e-4,-1.40188 0.39407,-0.65653 1.09684,-1.44715 2.19156,-1.79728 1.09472,-0.35014 2.58689,-0.26236 3.8572,0.17571 1.27031,0.43807 2.32286,1.22748 3.59398,1.88491 1.27113,0.65743 2.76153,1.18345 3.76945,0.83236 1.00793,-0.3511 1.53407,-1.57878 1.32625,-3.90282 -0.20783,-2.32405 -1.19539,-5.915195 -2.64157,-9.859252 -1.44617,-3.944057 -3.375,-8.32776 -5.74131,-11.263866 -2.3663,-2.936106 -5.17163,-4.426438 -7.42644,-4.229817 -2.25481,0.19662 -3.88061,1.993566 -4.71383,3.703356 -0.83322,1.709789 -0.83322,3.462036 -1.09615,5.08407 -0.26293,1.622035 -0.78856,3.198919 -2.01612,4.163778 -1.22757,0.964859 -3.15456,1.315221 -5.00435,1.069218 -1.84979,-0.246002 -3.76099,-1.156102 -5.77767,-3.43587 -2.01667,-2.279767 -4.2076,-5.96052 -5.08388,-8.415324 -0.87629,-2.454804 -0.43797,-3.682105 0.68616,-3.661464 1.12413,0.02064 2.82022,1.207903 4.13541,1.338852 1.31518,0.130948 2.19185,-0.833392 3.19903,-2.935487 1.00717,-2.102094 2.14795,-5.348928 3.46278,-7.846771 1.31483,-2.497843 2.80556,-4.251637 5.30276,-5.127671 2.4972,-0.876034 6.00564,-0.876034 8.98514,0.307009 2.97951,1.183043 5.43462,3.550467 7.66976,6.968844 2.23514,3.418377 4.25127,7.88893 5.5228,12.802059 1.27154,4.91313 1.79659,10.251141 2.36939,13.002578 0.57279,2.751437 1.35645,2.947348 1.66293,0.976559 0.30648,-1.970791 0.21874,-6.09483 0.13109,-11.178235 -0.0876,-5.083406 -0.17532,-11.133191 -0.58936,-14.758478 -0.41404,-3.625286 -1.07629,-4.701445 -3.09197,-7.418225 -2.01568,-2.716779 -5.34747,-7.013035 -6.96904,-9.818507 -1.62157,-2.805471 -1.53391,-4.12037 -0.96433,-5.960288 0.56958,-1.839919 1.62232,-4.208578 4.25106,-8.765013 2.62874,-4.556436 6.83843,-11.309487 11.04525,-18.057922"
         style="fill:none;stroke:#21231e;stroke-width:2.4000001;stroke-linecap:butt;stroke-linejoin:miter;stroke-miterlimit:4;stroke-dasharray:none;stroke-opacity:1" />
      <path
         style="fill:none;stroke:#21231e;stroke-width:2.4000001;stroke-linecap:butt;stroke-linejoin:miter;stroke-miterlimit:4;stroke-dasharray:none;stroke-opacity:1"
         d="m -111.0156,159.09788 c 14.979579,0.52591 30.05036,1.05501 43.105609,3.46379 13.055249,2.40878 24.27538,6.70398 29.689112,8.70412 5.413732,2.00013 5.105223,1.76875 15.852713,-17.10489 10.74749,-18.87363 32.731798,-56.598704 43.381473,-75.576681 10.649674,-18.977976 10.036072,-19.328606 8.154797,-18.934808 -1.881275,0.393799 -5.043025,1.535542 -9.118309,5.216427 -4.075284,3.680885 -9.072643,9.905663 -11.9658269,13.061433 -2.8931837,3.155769 -3.6820836,3.243424 -4.6455415,2.14833 -0.9634578,-1.095095 -2.1042692,-3.376719 -4.906586,-4.428102 -2.8023168,-1.051383 -7.2786273,-0.875841 -10.6964836,0.613966 -3.417855,1.489808 -5.785112,4.295444 -7.538298,6.311607 -1.753186,2.016163 -2.892691,3.243319 -4.427265,3.813086 -1.534573,0.569767 -3.462963,0.482113 -4.733449,-0.832621 -1.270486,-1.314734 -1.884421,-3.858167 -2.410621,-5.128611 -0.5262,-1.270444 -0.78937,-1.270444 -0.964185,0.608311 -0.174815,1.878756 -0.174815,5.658767 0.200528,8.58652 0.375343,2.927753 1.202051,5.224169 2.560886,6.627264 1.358835,1.403095 3.286234,2.016357 5.522652,1.753325 2.236419,-0.263032 4.776897,-1.401867 7.143688,-2.190848 2.366791,-0.788981 4.557831,-1.227189 6.267166,-1.052185 1.7093346,0.175003 2.9360998,0.963641 3.4187223,2.454795 0.4826225,1.491153 0.2198988,3.680502 -0.3498232,6.003572 -0.569722,2.32306 -1.4455208,4.7753 -2.4109978,6.17943 -0.9654773,1.40414 -2.0164453,1.75446 -3.5501723,1.44755 -1.533727,-0.30692 -3.550997,-1.2717 -6.179435,-1.18399 -2.628439,0.0877 -5.873688,1.22793 -7.232517,2.19141 -1.35883,0.96349 -0.83279,1.75255 0.493875,2.74303 1.326665,0.99049 3.581715,2.25331 4.590376,3.52461 1.008661,1.2713 0.833444,2.58544 0.10659,4.39375 -0.726854,1.80831 -2.078098,4.24055 -4.401434,6.65154 -2.323337,2.41098 -5.653831,4.86502 -8.415352,6.17985 -2.761521,1.31483 -4.953061,1.49016 -6.951935,1.14748 -1.998874,-0.34267 -3.874456,-1.2358 -5.4956,-2.24364 -1.621144,-1.00785 -3.024583,-2.14814 -4.338737,-3.85672 -1.314155,-1.70858 -2.542307,-3.98944 -3.243238,-6.31168 -0.700931,-2.32223 -0.87634,-4.69022 -0.198764,-6.99834 0.677577,-2.30813 2.12768,-4.44063 3.398335,-5.75526 1.270655,-1.31462 2.322647,-1.75295 3.593677,-1.70931 1.271031,0.0436 2.760499,0.56933 3.812864,1.31444 1.052365,0.7451 1.665477,1.70856 2.147825,2.14746 0.482348,0.4389 0.83254,0.35135 1.183945,-0.70306 0.351406,-1.0544 0.70133,-3.06646 0.350383,-4.68801 -0.350948,-1.62155 -1.403252,-2.84924 -2.89255,-3.33087 -1.489299,-0.48164 -3.419439,-0.21844 -4.865376,0.13214 -1.445937,0.35058 -2.410589,0.78905 -2.926124,0.87351 -0.515534,0.0844 -0.623849,-0.34881 -0.186932,-1.96533 0.436917,-1.61652 1.404382,-4.51891 1.798715,-7.104796 0.394332,-2.585886 0.218979,-4.865445 -0.553275,-7.502104 -0.772255,-2.636658 -2.208558,-5.778577 -3.216149,-6.873962 -1.007592,-1.095385 -1.621438,-0.218467 -2.655139,1.075016 -1.033702,1.293482 -2.560304,3.089487 -3.568335,5.280644 -1.008032,2.191157 -1.533951,4.82075 -1.621693,7.713737 -0.08774,2.892987 0.262784,6.047715 0.30613,7.626095 0.04335,1.57838 -0.219534,1.57838 -0.87483,0.74822 -0.655297,-0.83016 -1.711184,-2.50198 -3.157093,-3.50944 -1.44591,-1.007461 -3.287999,-1.358333 -5.040264,-1.139224 -1.752266,0.219109 -3.418789,1.008514 -4.42652,2.454074 -1.007731,1.44557 -1.358451,3.54988 -1.271359,4.68967 0.08709,1.13978 0.612833,1.31503 1.271731,1.05148 0.658899,-0.26354 1.446009,-0.9632 2.540904,-1.36388 1.094896,-0.40069 2.147564,-0.47588 3.396444,-0.0209 1.24888,0.45492 2.432537,1.38493 3.178215,2.78815 0.745678,1.40322 1.008415,3.24237 0.789229,5.5225 -0.219186,2.28013 -0.920016,4.99585 -2.059775,7.53844 -1.139759,2.54259 -2.717185,4.90873 -4.514499,6.66214 -1.797315,1.75341 -3.813237,2.89285 -6.35529,3.72552 -2.542052,0.83268 -5.610552,1.35871 -8.678327,1.31477 -3.067774,-0.0439 -6.136584,-0.65769 -8.897255,-2.1478 -2.760672,-1.4901 -5.215992,-3.85774 -6.617979,-6.61834 -1.402,-2.76061 -1.75277,-5.91758 -1.53408,-7.5824 0.2187,-1.66483 1.00789,-1.8402 1.88515,-2.23494 0.87727,-0.39475 1.840588,-1.00777 2.717437,-1.79695 0.87685,-0.78919 1.665554,-1.75316 2.235353,-2.54215 0.569799,-0.78898 0.920469,-1.40265 1.394011,-1.63471 0.473543,-0.23206 1.278238,-0.0309 2.155742,0.10077 0.877505,0.13166 1.927635,0.21917 2.410146,-7.6e-4 0.482511,-0.21993 0.394942,-0.74534 8.69e-4,-1.40188 -0.394073,-0.65653 -1.096845,-1.44715 -2.191563,-1.79728 -1.094717,-0.35014 -2.586889,-0.26236 -3.8572,0.17571 -1.27031,0.43807 -2.32286,1.22748 -3.593976,1.88491 -1.271119,0.65743 -2.761519,1.18345 -3.769439,0.83236 -1.00793,-0.3511 -1.53407,-1.57878 -1.32625,-3.90282 0.20783,-2.32405 1.19539,-5.915195 2.64156,-9.859253 1.44617,-3.944058 3.374996,-8.327757 5.741302,-11.263864 2.366306,-2.936107 5.171636,-4.426439 7.426442,-4.229818 2.254807,0.19662 3.880614,1.993566 4.713832,3.703356 0.833218,1.709789 0.833218,3.462036 1.096148,5.08407 0.26293,1.622035 0.788558,3.198919 2.016122,4.163778 1.227565,0.964859 3.154554,1.315221 5.004345,1.069218 1.849792,-0.246002 3.760997,-1.156102 5.77767,-3.43587 2.016673,-2.279767 4.207599,-5.96052 5.083886,-8.415324 0.876286,-2.454804 0.437964,-3.682105 -0.686165,-3.661464 -1.12413,0.02064 -2.82022,1.207903 -4.135404,1.338852 -1.315184,0.130948 -2.191855,-0.833392 -3.19903,-2.935487 -1.007175,-2.102094 -2.147954,-5.348928 -3.462784,-7.846771 -1.31483,-2.497843 -2.805559,-4.251637 -5.302759,-5.127671 -2.497201,-0.876034 -6.005641,-0.876034 -8.985146,0.307009 -2.979505,1.183043 -5.434612,3.550467 -7.669748,6.968842 -2.235131,3.418375 -4.251261,7.88893 -5.522801,12.80206 -1.27153,4.913131 -1.79658,10.251142 -2.36938,13.002579 -0.57279,2.751437 -1.35645,2.947348 -1.66293,0.976559 -0.30648,-1.970791 -0.21874,-6.09483 -0.13109,-11.178235 0.0876,-5.083406 0.17532,-11.133191 0.58936,-14.758478 0.41404,-3.625286 1.07629,-4.701445 3.09197,-7.418226 2.01567,-2.716781 5.347454,-7.013032 6.969022,-9.818505 1.621567,-2.805472 1.533908,-4.120371 0.964328,-5.96029 -0.569579,-1.839918 -1.622316,-4.208577 -4.25105,-8.76501 -2.62874,-4.556434 -6.83843,-11.309487 -11.04524,-18.057924"
         id="path24" />
    </g>
  </g>
</svg>
